PathFileType	3	(X/Y/Z)	E:\ViconData\BIOM9541 2025\Week 7\Wed1100\Hanif high squat 5 Squat 01.trc
DataRate	CameraRate	NumFrames	NumMarkers	Units	OrigDataRate	OrigDataStartFrame	OrigNumFrames
200.0	200.0	20	19	mm	200.0	1	1450	
Frame#	Time	C7			CLAV			RBAK			LASI			RASI			LPSI			RPSI			LTHI			LKNE			LTIB			LANK			LHEE			LTOE			RTHI			RKNE			RTIB			RANK			RHEE			RTOE			
		X1	Y1	Z1	X2	Y2	Z2	X3	Y3	Z3	X4	Y4	Z4	X5	Y5	Z5	X6	Y6	Z6	X7	Y7	Z7	X8	Y8	Z8	X9	Y9	Z9	X10	Y10	Z10	X11	Y11	Z11	X12	Y12	Z12	X13	Y13	Z13	X14	Y14	Z14	X15	Y15	Z15	X16	Y16	Z16	X17	Y17	Z17	X18	Y18	Z18	X19	Y19	Z19	
1	0.0	335.95154	1318.9922	-1203.8783	188.75807	1248.3254	-1200.5635	355.24478	1230.2296	-1346.1396	194.57014	878.9433	-1074.4558	184.7352	890.3734	-1336.7358	363.471	937.8793	-1165.9661	361.3226	936.3063	-1240.609	259.6452	552.69183	-1003.9518	284.65469	417.22385	-1007.6227	306.66473	220.28934	-967.03394	310.46991	62.391666	-970.49176	333.23087	47.16647	-1027.1356	161.39091	37.162548	-950.84399	244.51106	727.61951	-1401.2424	286.24808	419.71155	-1409.152	300.1618	333.35339	-1434.3541	307.11798	72.520721	-1432.0948	328.84354	47.856091	-1368.8872	161.9968	40.403603	-1461.116	
2	0.005	335.96216	1319.006	-1203.8518	188.76154	1248.3501	-1200.4771	355.25607	1230.2721	-1346.0809	194.59457	878.90479	-1074.4751	184.7102	890.4157	-1336.6993	363.4764	937.9297	-1165.9276	361.3437	936.2569	-1240.6569	259.68588	552.66113	-1003.9426	284.66589	417.20157	-1007.6115	306.69427	220.27843	-967.02917	310.46317	62.384472	-970.4519	333.23456	47.222858	-1027.1151	161.35414	37.179852	-950.81769	244.74857	728.13538	-1401.2961	286.22302	419.75385	-1409.134	300.13403	333.4155	-1434.343	307.12729	72.590347	-1432.0931	328.82138	47.875404	-1368.8313	161.96443	40.48864	-1461.1749	
3	0.01	335.95132	1319.0419	-1203.8582	188.73509	1248.3956	-1200.4655	355.05508	1229.5111	-1349.0155	194.61168	878.93317	-1074.4805	184.6835	890.4061	-1336.6659	363.4932	937.9172	-1166.0319	361.3892	936.3862	-1240.6575	259.7803	552.65906	-1003.9909	284.74112	417.25003	-1007.6296	306.73108	220.31003	-967.03571	310.49091	62.397923	-970.44952	333.22623	47.205616	-1027.092	161.37732	37.175419	-950.82935	244.75487	728.1333	-1401.2877	286.23013	419.72195	-1409.1212	300.27872	333.69788	-1434.4974	307.14264	72.542229	-1432.105	328.83752	47.874386	-1368.8754	162.24121	40.057434	-1461.3403	
4	0.015	336.01361	1319.0209	-1203.8684	188.67087	1248.5354	-1200.6271	355.08658	1229.5935	-1348.9877	194.62071	878.96997	-1074.4653	184.6913	890.3434	-1336.6351	363.5564	937.8816	-1166.3081	361.4405	936.5148	-1240.6647	259.77094	552.76343	-1003.9142	284.75146	417.28952	-1007.6124	305.82849	220.93668	-964.81567	310.508	62.406658	-970.46899	333.22589	47.121666	-1027.0602	161.37305	37.1982	-950.83234	244.75043	728.07123	-1401.2705	286.2381	419.65396	-1409.1196	300.15549	333.33234	-1434.3325	306.98557	72.224533	-1431.989	328.84052	47.37315	-1369.4142	162.25632	40.001434	-1461.3529	
5	0.02	336.02985	1318.985	-1203.897	188.55815	1248.6731	-1200.7507	355.12015	1229.6752	-1348.9685	194.62511	878.9635	-1074.4469	184.6837	890.3016	-1336.6077	363.5793	937.8616	-1166.408	361.456	936.478	-1240.7256	259.84543	552.71051	-1003.94	284.7739	417.29568	-1007.6185	305.83084	220.95029	-964.80859	310.55539	62.383503	-970.50122	333.24503	47.080898	-1027.0919	161.39287	37.188133	-950.8479	244.76137	728.03113	-1401.2664	286.25708	419.63187	-1409.1152	300.29718	333.60529	-1434.4891	307.00485	72.161591	-1431.996	328.8382	47.355122	-1369.417	162.26094	39.977936	-1461.3213	
6	0.025	336.04489	1318.9869	-1203.9003	188.78107	1248.469	-1200.4844	355.10455	1229.7544	-1348.9255	194.63145	878.91443	-1074.4413	184.6704	890.3232	-1336.6051	363.5598	937.8948	-1166.1942	361.4206	936.4168	-1240.7507	259.87662	552.65308	-1003.925	284.79367	417.24686	-1007.6232	305.84366	220.87984	-964.81042	310.54276	62.35281	-970.4632	333.32007	47.160084	-1027.1395	161.42462	37.172073	-950.82788	244.75552	728.07239	-1401.2654	286.258	419.69223	-1409.1304	300.30585	333.6608	-1434.5154	307.00449	72.221718	-1432.0129	328.81143	47.356293	-1369.3234	162.24692	40.011848	-1461.3007	
7	0.03	336.03806	1318.9624	-1203.9283	188.77	1248.4957	-1200.4185	355.07996	1229.7323	-1348.9681	194.64458	878.84338	-1074.4413	184.6498	890.3614	-1336.5911	363.5271	937.9439	-1165.983	361.3376	936.2817	-1240.7184	259.90598	552.59973	-1003.9064	284.80276	417.17319	-1007.6275	305.85553	220.80835	-964.81531	310.50647	62.357422	-970.39825	333.36328	47.238144	-1027.17	161.44569	37.168102	-950.79675	244.73924	728.13129	-1401.2782	286.26871	419.77591	-1409.1425	300.2131	333.52713	-1434.4266	307.1684	72.473732	-1432.1398	328.8577	47.788902	-1368.9064	162.26872	40.069794	-1461.2992	
8	0.035	336.06299	1318.9434	-1203.9524	188.78044	1248.4865	-1200.4434	355.53146	1230.2578	-1350.0477	194.66179	878.83154	-1074.4402	184.6392	890.351	-1336.5798	363.5068	937.957	-1165.8885	361.2814	936.183	-1240.7297	259.91293	552.57928	-1003.8961	284.80801	417.17664	-1007.614	305.8548	220.78903	-964.80688	310.52072	62.352516	-970.37518	333.39798	47.292454	-1027.222	161.46411	37.181686	-950.82849	244.72357	728.13672	-1401.2758	286.27844	419.79282	-1409.1492	300.32297	333.75732	-1434.5306	307.00427	72.323418	-1432.0267	328.71106	47.400059	-1369.0823	162.26938	40.080837	-1461.3074	
9	0.04	336.08215	1318.9403	-1203.9741	188.78302	1248.5127	-1200.4128	355.06189	1229.7277	-1349.0394	194.65875	878.8576	-1074.4235	184.6337	890.3115	-1336.5546	363.5233	937.9755	-1166.045	361.3569	936.3039	-1240.8174	259.94949	552.59137	-1003.8922	284.80875	417.19852	-1007.6177	305.85458	220.81056	-964.82367	310.55457	62.330772	-970.42303	333.41284	47.246506	-1027.2313	161.51141	37.164474	-950.84613	244.73244	728.09705	-1401.2699	286.28824	419.76852	-1409.1423	300.35947	333.72391	-1434.5371	307.0383	72.274467	-1432.0504	328.74289	47.412319	-1369.1415	162.2879	40.027214	-1461.29	
10	0.045	336.10245	1318.9515	-1203.9817	188.78209	1248.5701	-1200.5269	355.07907	1229.7343	-1349.076	194.65744	878.88086	-1074.3911	184.6148	890.2422	-1336.5229	363.5416	937.9762	-1166.188	361.4102	936.3441	-1240.8639	259.96936	552.63983	-1003.8861	284.81927	417.26639	-1007.6105	305.8468	220.86189	-964.79163	310.59647	62.329197	-970.46393	333.41745	47.19117	-1027.2104	161.4966	37.17194	-950.83649	244.74179	728.04785	-1401.2611	286.31836	419.7243	-1409.129	300.29871	333.50272	-1434.4285	307.21301	72.390144	-1432.1586	328.84122	47.768814	-1368.9418	162.30862	39.994904	-1461.2986	
11	0.05	336.12259	1318.9287	-1203.9922	188.79456	1248.6154	-1200.4661	355.07513	1229.7355	-1349.0934	194.67854	878.8869	-1074.4053	184.58	890.255	-1336.5013	363.5581	937.9745	-1166.218	361.4242	936.3965	-1240.8918	259.97995	552.65289	-1003.8942	284.82913	417.24207	-1007.6226	305.86005	220.85286	-964.81329	310.61282	62.331982	-970.46875	333.44058	47.205906	-1027.2299	161.47668	37.172237	-950.82764	244.71147	728.04852	-1401.2454	286.32324	419.745	-1409.1166	300.30981	333.53983	-1434.4407	307.05414	72.213493	-1432.0359	328.77487	47.402401	-1369.182	162.30843	40.019218	-1461.3169	
12	0.055	336.13974	1318.9362	-1203.9674	188.82953	1248.6456	-1200.3342	355.05844	1229.7305	-1349.0792	194.69225	878.84564	-1074.422	184.563	890.257	-1336.4756	363.5906	937.9835	-1166.1683	361.397	936.353	-1240.8877	260.0047	552.57916	-1003.9121	284.85233	417.21359	-1007.6368	305.86145	220.8138	-964.80029	310.59329	62.298347	-970.44836	333.43744	47.257912	-1027.2372	161.46991	37.209339	-950.82721	244.70677	728.07227	-1401.2217	286.3385	419.78146	-1409.1022	300.39368	333.72568	-1434.5083	307.24341	72.382881	-1432.1372	328.8605	47.74987	-1368.8933	162.30437	40.039146	-1461.2913	
13	0.06	336.17203	1318.9305	-1203.9862	188.83852	1248.661	-1200.2659	355.42224	1230.1045	-1349.8459	194.67326	878.81696	-1074.4041	184.581	890.2541	-1336.4645	363.586	937.9874	-1166.0902	361.3654	936.2295	-1240.8929	260.01245	552.52179	-1003.916	284.84964	417.16418	-1007.6343	305.88068	220.79071	-964.81818	310.56509	62.284172	-970.41473	333.4119	47.247116	-1027.1991	161.48022	37.204376	-950.81787	244.71666	728.11761	-1401.2212	286.35074	419.82928	-1409.0839	300.42563	333.74899	-1434.5024	307.26715	72.393074	-1432.1396	328.83105	47.72369	-1368.8303	162.31551	40.069458	-1461.2754	
14	0.065	336.19711	1318.8937	-1203.9918	188.86125	1248.6849	-1200.2456	355.41895	1230.0428	-1349.8135	194.6758	878.8006	-1074.4135	184.5883	890.2646	-1336.469	363.5902	937.9866	-1166.0585	361.35	936.1589	-1240.8844	260.01254	552.50989	-1003.9213	284.83804	417.1188	-1007.6417	305.86481	220.75575	-964.81171	310.58725	62.237007	-970.41711	333.51682	47.273399	-1027.2834	161.51013	37.178219	-950.81201	244.73228	728.10992	-1401.2219	286.38858	419.80887	-1409.0815	300.45956	333.74631	-1434.5082	307.30084	72.392525	-1432.1313	328.8439	47.682365	-1368.8412	162.35115	40.058105	-1461.2927	
15	0.07	336.25912	1318.8545	-1204.0238	188.84967	1248.6538	-1200.3953	355.53305	1229.9999	-1349.8689	194.67096	878.82526	-1074.4141	184.6069	890.2045	-1336.4669	363.6184	937.9137	-1166.1827	361.3976	936.1777	-1240.9061	259.9874	552.51886	-1003.899	284.84872	417.13297	-1007.6573	305.86774	220.75044	-964.82843	310.61545	62.228966	-970.4425	333.52844	47.183128	-1027.2777	161.5313	37.137974	-950.80499	244.77957	728.01483	-1401.2278	286.42587	419.73465	-1409.1017	300.47635	333.6814	-1434.5012	307.194	72.135986	-1432.0648	328.77664	47.246109	-1369.1456	162.39021	39.963238	-1461.3143	
16	0.075	336.27127	1318.8087	-1204.0278	188.87862	1248.6572	-1200.507	355.48047	1229.8765	-1349.8335	194.65448	878.81281	-1074.4287	184.6063	890.1626	-1336.4747	363.6306	937.8903	-1166.307	361.4078	936.2006	-1240.8893	259.97321	552.56177	-1003.9102	284.84387	417.14304	-1007.6612	305.85892	220.79059	-964.82709	310.61676	62.244179	-970.43774	333.53662	47.141403	-1027.3032	161.53513	37.107037	-950.81567	244.79106	727.97784	-1401.2302	286.42694	419.66238	-1409.0898	300.46283	333.62302	-1434.5068	307.11542	72.126854	-1432.0204	328.77414	47.232368	-1369.1689	162.40845	39.880619	-1461.3011	
17	0.08	336.27838	1318.8444	-1204.0457	188.87677	1248.6702	-1200.448	355.49368	1229.8944	-1349.8757	194.66034	878.8241	-1074.4376	184.5916	890.1633	-1336.4767	363.6148	937.9403	-1166.2817	361.3757	936.1831	-1240.8784	259.98938	552.55371	-1003.9334	284.84952	417.14496	-1007.6717	305.85388	220.78659	-964.80945	310.60788	62.254696	-970.45172	333.51288	47.176628	-1027.2941	161.50623	37.119869	-950.80811	244.75275	727.99487	-1401.2273	286.39255	419.69702	-1409.0924	300.38647	333.50433	-1434.4275	307.29236	72.306808	-1432.132	328.85101	47.660275	-1368.9451	162.37741	39.937885	-1461.3319	
18	0.085	336.29138	1318.8616	-1204.0444	188.90695	1248.7014	-1200.4095	355.45642	1229.907	-1349.9064	194.66499	878.83167	-1074.4493	184.5868	890.1969	-1336.4722	363.5939	938.0377	-1165.9952	361.3684	936.1641	-1240.8785	259.97849	552.54315	-1003.9492	284.82101	417.14883	-1007.6243	306.52332	220.3181	-966.28632	310.5744	62.333736	-970.37775	333.4631	47.237751	-1027.2372	161.49634	37.15733	-950.8172	244.75993	728.04913	-1401.228	286.36447	419.76752	-1409.0889	300.36792	333.57434	-1434.4333	307.26065	72.383034	-1432.1299	328.79504	47.827137	-1368.7151	162.35432	39.983604	-1461.3074	
19	0.09	336.30347	1318.8606	-1204.0444	188.93176	1248.7242	-1200.3223	355.07736	1229.4668	-1349.2997	194.63316	878.8374	-1074.4314	184.5798	890.2	-1336.467	363.5751	938.0541	-1165.9418	361.3747	936.2131	-1240.8662	259.93103	552.57135	-1003.904	284.81317	417.15405	-1007.608	305.87003	220.76375	-964.81299	310.56677	62.334957	-970.36981	333.46265	47.230583	-1027.2122	161.4944	37.175388	-950.8266	244.74815	728.05786	-1401.217	286.36038	419.78064	-1409.0914	300.4183	333.71198	-1434.4913	307.25143	72.39151	-1432.1329	328.79828	47.878368	-1368.6904	162.33981	39.986301	-1461.2802	
20	0.095	336.32956	1318.8665	-1204.0255	188.92349	1248.7301	-1200.3314	355.47754	1229.9133	-1349.887	194.61186	878.88043	-1074.4119	184.5882	890.179	-1336.4552	363.6291	937.9637	-1166.1488	361.4275	936.2595	-1240.8851	259.91248	552.61438	-1003.8967	284.80432	417.19232	-1007.6042	306.49658	220.336	-966.24933	310.59314	62.298592	-970.48004	333.49384	47.127312	-1027.2189	161.49426	37.1329	-950.79633	244.78668	728.01587	-1401.2166	286.36768	419.69852	-1409.0731	300.42261	333.65372	-1434.485	307.07297	72.157188	-1432.006	328.79599	47.385933	-1369.1578	162.35359	39.919868	-1461.282	
